<!-- icon666.com - MILLIONS OF FREE VECTOR ICONS --><svg viewBox="0 -10 512 512" xmlns="http://www.w3.org/2000/svg"><path d="m290.730469 20.691406v377.078125c0 11.421875-8.292969 20.691407-18.539063 20.691407h-253.652344c-10.246093 0-18.539062-9.269532-18.539062-20.691407v-377.078125c0-11.421875 8.292969-20.691406 18.539062-20.691406h253.652344c10.246094 0 18.539063 9.269531 18.539063 20.691406zm0 0" fill="#4895ff" style="fill: rgb(46, 236, 113);"></path><path d="m290.730469 20.691406v377.078125c0 11.421875-8.292969 20.691407-18.539063 20.691407h-126.824218v-418.460938h126.824218c10.246094 0 18.539063 9.269531 18.539063 20.691406zm0 0" fill="#2682ff" style="fill: rgb(46, 236, 113);"></path><path d="m0 139.484375h290.730469v139.496094h-290.730469zm0 0" fill="#aed0ff" style="fill: rgb(163, 159, 159);"></path><path d="m145.367188 139.484375h145.363281v139.496094h-145.363281zm0 0" fill="#8cbcff" style="fill: rgb(163, 159, 159);"></path><path d="m169.179688 72.746094c0 9.734375-7.886719 17.632812-17.628907 17.632812h-89.019531c-9.734375 0-17.632812-7.898437-17.632812-17.632812 0-9.746094 7.898437-17.628906 17.632812-17.628906h89.015625c9.746094 0 17.632813 7.886718 17.632813 17.628906zm0 0" fill="#ffeb99"></path><path d="m151.546875 90.378906h-6.179687v-35.261718h6.179687c9.746094 0 17.632813 7.886718 17.632813 17.628906 0 9.734375-7.886719 17.632812-17.632813 17.632812zm0 0" fill="#ffda44"></path><path d="m208.289062 90.375h15.652344c9.738282 0 17.632813-7.894531 17.632813-17.632812 0-9.734376-7.894531-17.628907-17.632813-17.628907h-15.652344c-9.738281 0-17.628906 7.894531-17.628906 17.628907 0 9.738281 7.890625 17.632812 17.628906 17.632812zm0 0" fill="#ffda44"></path><path d="m169.179688 211.207031c0 9.742188-7.886719 17.628907-17.628907 17.628907h-89.019531c-9.734375 0-17.632812-7.886719-17.632812-17.628907 0-9.734375 7.898437-17.632812 17.632812-17.632812h89.015625c9.746094 0 17.632813 7.898437 17.632813 17.632812zm0 0" fill="#ffeb99"></path><path d="m169.179688 211.207031c0 9.742188-7.886719 17.628907-17.628907 17.628907h-6.183593v-35.261719h6.183593c9.742188 0 17.628907 7.898437 17.628907 17.632812zm0 0" fill="#ffda44"></path><path d="m208.289062 228.839844h15.652344c9.738282 0 17.632813-7.894532 17.632813-17.632813s-7.894531-17.632812-17.632813-17.632812h-15.652344c-9.738281 0-17.628906 7.894531-17.628906 17.632812s7.890625 17.632813 17.628906 17.632813zm0 0" fill="#ffda44"></path><path d="m169.179688 351.527344c0 9.730468-7.886719 17.632812-17.628907 17.632812h-89.019531c-9.734375 0-17.632812-7.898437-17.632812-17.632812 0-9.746094 7.898437-17.632813 17.632812-17.632813h89.015625c9.746094 0 17.632813 7.886719 17.632813 17.632813zm0 0" fill="#ffeb99"></path><path d="m169.179688 351.527344c0 9.730468-7.886719 17.632812-17.628907 17.632812h-6.183593v-35.265625h6.183593c9.742188 0 17.628907 7.886719 17.628907 17.632813zm0 0" fill="#ffda44"></path><path d="m512 342.386719c0 82.683593-67.261719 149.945312-149.9375 149.945312h-.570312c-82.425782-.3125-149.375-67.449219-149.375-149.945312 0-82.488281 66.949218-149.625 149.375-149.9375h.570312c82.675781 0 149.9375 67.261719 149.9375 149.9375zm0 0" fill="#ff5e93" style="fill: rgb(28, 146, 67);"></path><path d="m512 342.386719c0 82.683593-67.261719 149.945312-149.9375 149.945312h-.570312v-299.882812h.570312c82.675781 0 149.9375 67.261719 149.9375 149.9375zm0 0" fill="#ff3c7d" style="fill: rgb(28, 146, 67);"></path><path d="m479.195312 342.386719c0 34.261719-14.703124 65.148437-38.144531 86.671875-20.960937 19.265625-48.910156 31.042968-79.558593 31.042968-30.085938 0-57.589844-11.351562-78.425782-30-24.109375-21.558593-39.300781-52.890624-39.300781-87.714843 0-64.910157 52.816406-117.707031 117.726563-117.707031 64.90625 0 117.703124 52.796874 117.703124 117.707031zm0 0" fill="#ffeb99"></path><path d="m479.195312 342.386719c0 34.261719-14.703124 65.148437-38.144531 86.671875-20.960937 19.265625-48.910156 31.042968-79.558593 31.042968v-235.421874c64.90625 0 117.703124 52.796874 117.703124 117.707031zm0 0" fill="#ffda44"></path><path d="m438.59375 391.476562c-15.777344 26.574219-44.757812 43.089844-75.632812 43.089844-.492188 0-.980469 0-1.46875-.007812-30.878907-.511719-58.828126-17.046875-74.25-43.21875l-12.027344 5.09375c-4.9375 2.082031-10.289063-1.957032-9.621094-7.28125l6.871094-55.355469c.65625-5.324219 6.832031-7.9375 11.113281-4.699219l44.507813 33.625c4.277343 3.230469 3.457031 9.882813-1.480469 11.976563l-10.183594 4.300781c10.171875 14.664062 26.792969 23.835938 45.070313 24.296875.488281.019531.976562.03125 1.46875.03125 19.898437 0 38.59375-10.652344 48.765624-27.796875 4.40625-7.414062 13.984376-9.859375 21.410157-5.453125 7.414062 4.402344 9.863281 13.984375 5.457031 21.398437zm0 0" fill="#4895ff" style="fill: rgb(46, 236, 113);"></path><path d="m438.59375 391.476562c-15.777344 26.574219-44.757812 43.089844-75.632812 43.089844-.492188 0-.980469 0-1.46875-.007812v-31.261719c.488281.019531.976562.03125 1.46875.03125 19.898437 0 38.59375-10.652344 48.765624-27.796875 4.40625-7.414062 13.984376-9.859375 21.410157-5.453125 7.414062 4.402344 9.863281 13.984375 5.457031 21.398437zm0 0" fill="#2682ff" style="fill: rgb(46, 236, 113);"></path><path d="m458.527344 295.628906-6.875 55.359375c-.65625 5.320313-6.832032 7.933594-11.109375 4.707031l-44.507813-33.636718c-4.28125-3.226563-3.460937-9.882813 1.488282-11.964844l10.183593-4.3125c-10.394531-14.964844-27.492187-24.210938-46.214843-24.316406-.117188-.007813-.21875-.007813-.335938-.007813-20.316406 0-39.195312 10.984375-49.277344 28.667969-4.269531 7.496094-13.808594 10.101562-21.304687 5.832031-7.488281-4.269531-10.101563-13.808593-5.832031-21.308593 15.621093-27.394532 44.902343-44.433594 76.414062-44.433594h.335938c31.324218.113281 59.773437 16.746094 75.382812 43.226562l12.027344-5.089844c4.9375-2.085937 10.289062 1.957032 9.625 7.277344zm0 0" fill="#4895ff" style="fill: rgb(46, 236, 113);"></path><path d="m458.527344 295.628906-6.875 55.359375c-.65625 5.320313-6.832032 7.933594-11.109375 4.707031l-44.507813-33.636718c-4.28125-3.226563-3.460937-9.882813 1.488282-11.964844l10.183593-4.3125c-10.394531-14.964844-27.492187-24.210938-46.214843-24.316406v-31.25c31.324218.113281 59.773437 16.746094 75.382812 43.226562l12.027344-5.089844c4.9375-2.085937 10.289062 1.957032 9.625 7.277344zm0 0" fill="#2682ff" style="fill: rgb(46, 236, 113);"></path></svg>