<!-- icon666.com - MILLIONS OF FREE VECTOR ICONS --><svg viewBox="0 0 64 64" xmlns="http://www.w3.org/2000/svg"><g id="Layer_97" data-name="Layer 97"><rect fill="#33d9b2" height="57.5" rx="12.75" width="57.5" x="3.25" y="3.25" style="fill: rgb(46, 236, 113);"></rect><g fill="#fff"><path d="m24.14 40.26a.77.77 0 0 0 -.69-.46h-5v-22.09a.75.75 0 0 0 -1.5 0v22.09h-4.95a.75.75 0 0 0 -.53 1.28l5.74 5.74a.71.71 0 0 0 .53.22.74.74 0 0 0 .53-.22l5.73-5.74a.77.77 0 0 0 .14-.82zm-6.43 5-3.93-3.96h7.85z" fill="#fff"></path><path d="m33.06 45.54h-4.92a.75.75 0 0 0 0 1.5h4.92a.75.75 0 0 0 0-1.5z" fill="#fff"></path><path d="m38 38.39h-9.86a.75.75 0 0 0 0 1.5h9.86a.75.75 0 1 0 0-1.5z" fill="#fff"></path><path d="m43.35 31.25h-15.21a.75.75 0 0 0 0 1.5h15.21a.75.75 0 0 0 0-1.5z" fill="#fff"></path><path d="m47.81 24.11h-19.67a.75.75 0 0 0 0 1.5h19.67a.75.75 0 0 0 0-1.5z" fill="#fff"></path><path d="m52 17h-23.86a.75.75 0 0 0 0 1.5h23.86a.75.75 0 0 0 0-1.5z" fill="#fff"></path></g></g></svg>